<?xml version="1.0" encoding="utf-8"?>
<!-- Generator: Adobe Illustrator 23.0.2, SVG Export Plug-In . SVG Version: 6.00 Build 0)  -->
<svg version="1.1" id="Layer_1" xmlns="http://www.w3.org/2000/svg" xmlns:xlink="http://www.w3.org/1999/xlink" x="0px" y="0px"
	 viewBox="0 0 100 60" style="enable-background:new 0 0 100 60;" xml:space="preserve">
<g>
	<path d="M73.85,7.35C86.61,7.35,97,17.73,97,30.5S86.61,53.65,73.85,53.65S50.69,43.27,50.69,30.5S61.08,7.35,73.85,7.35
		 M73.85,6.35c-13.34,0-24.15,10.81-24.15,24.15s10.81,24.15,24.15,24.15S98,43.84,98,30.5S87.19,6.35,73.85,6.35L73.85,6.35z"/>
</g>
<g>
	<path d="M48.69,7.35v46.31h-14.1V7.35H48.69 M49.69,6.35h-16.1v48.31h16.1V6.35L49.69,6.35z"/>
</g>
<g>
	<path d="M33.4,7.35v46.31H19.3V7.35H33.4 M34.4,6.35H18.3v48.31h16.1V6.35L34.4,6.35z"/>
</g>
<g>
	<path d="M18.1,7.35v46.31H4V7.35H18.1 M19.1,6.35H3v48.31h16.1V6.35L19.1,6.35z"/>
</g>
</svg>
